<svg width="18" height="18" viewBox="0 0 18 18" fill="none" xmlns="http://www.w3.org/2000/svg">
<path d="M13.2803 9.21975C12.987 8.9265 12.513 8.9265 12.2198 9.21975L11.0243 10.4153C10.47 10.2503 9.43576 9.87525 8.78026 9.21975C8.12476 8.56425 7.74976 7.53 7.58476 6.97575L8.78026 5.78025C9.07351 5.487 9.07351 5.013 8.78026 4.71975L5.78026 1.71975C5.48701 1.4265 5.01301 1.4265 4.71976 1.71975L2.68576 3.75375C2.40076 4.03875 2.24026 4.43025 2.24626 4.83C2.26351 5.898 2.54626 9.6075 5.46976 12.531C8.39326 15.4545 12.1028 15.7365 13.1715 15.7545C13.1753 15.7545 13.1888 15.7545 13.1925 15.7545C13.5885 15.7545 13.9628 15.5985 14.2463 15.315L16.2803 13.281C16.5735 12.9878 16.5735 12.5138 16.2803 12.2205L13.2803 9.21975ZM13.185 14.2538C12.249 14.238 9.04651 13.9868 6.53026 11.4698C4.00576 8.94525 3.76126 5.7315 3.74626 4.81425L5.25001 3.3105L7.18951 5.25L6.21976 6.21975C6.04051 6.39825 5.96401 6.65625 6.01576 6.90375C6.03376 6.99 6.47401 9.03525 7.71901 10.2803C8.96401 11.5253 11.0093 11.9655 11.0955 11.9835C11.3453 12.0368 11.601 11.9595 11.7795 11.7803L12.75 10.8105L14.6895 12.75L13.185 14.2538Z" fill="#CB2F2F"/>
</svg>
