<svg width="18" height="14" viewBox="0 0 18 14" fill="none" xmlns="http://www.w3.org/2000/svg">
<path d="M16.5 0.625C16.6115 0.627247 16.7172 0.647621 16.8228 0.697839C16.9317 0.749923 17.0275 0.828399 17.1 0.925C17.1475 0.995795 17.1364 0.97455 17.1 0.925C17.1971 1.05453 17.25 1.21313 17.25 1.375C17.2497 1.33505 17.2481 1.31771 17.25 1.375V12.625C17.25 13.0392 16.9142 13.375 16.5 13.375H1.5C1.08579 13.375 0.75 13.0392 0.75 12.625V1.375C0.75 1.24073 0.786425 1.10741 0.854943 0.992252C0.99457 0.756985 1.23642 0.630314 1.5 0.625H16.5ZM15.75 2.875L9.45 7.6C9.21 7.78 8.889 7.798 8.6328 7.654L8.55 7.6L2.25 2.875V11.875H15.75V2.875ZM3.75 2.125L9 6.0625L14.25 2.125H3.75Z" fill="#CB2F2F"/>
</svg>
