<svg width="16" height="16" viewBox="0 0 16 16" fill="none" xmlns="http://www.w3.org/2000/svg">
<path d="M8 0.5C3.8645 0.5 0.5 3.8645 0.5 8C0.5 12.1355 3.8645 15.5 8 15.5C12.1355 15.5 15.5 12.1355 15.5 8C15.5 3.8645 12.1355 0.5 8 0.5ZM13.9482 7.25H11.8752C11.7882 5.62625 11.3278 4.025 10.5312 2.56775C12.3597 3.4235 13.6865 5.171 13.9482 7.25ZM8.3975 2.02025C9.17375 3.04325 10.2177 4.85525 10.3678 7.25H5.7725C5.87675 5.303 6.518 3.479 7.61075 2.0195C7.73975 2.012 7.86875 2 8 2C8.13425 2 8.2655 2.012 8.3975 2.02025ZM5.516 2.54525C4.778 3.9635 4.352 5.5715 4.2725 7.25H2.05175C2.31575 5.153 3.66275 3.39275 5.516 2.54525ZM2.05175 8.75H4.28225C4.38425 10.5343 4.781 12.1085 5.44925 13.4225C3.6305 12.563 2.312 10.8215 2.05175 8.75ZM7.5875 13.9797C6.53675 12.7062 5.9165 10.922 5.78075 8.75H10.3655C10.2095 10.8298 9.52775 12.647 8.41325 13.979C8.27675 13.988 8.14025 14 8 14C7.8605 14 7.72475 13.988 7.5875 13.9797ZM10.5958 13.4008C11.312 12.0553 11.7493 10.475 11.864 8.75H13.9475C13.6903 10.8042 12.3905 12.5352 10.5958 13.4008Z" fill="#121212"/>
</svg>
