<svg width="24" height="25" viewBox="0 0 24 25" fill="none" xmlns="http://www.w3.org/2000/svg">
<path fill-rule="evenodd" clip-rule="evenodd" d="M12 0.5C5.37258 0.5 0 5.87258 0 12.5C0 19.1274 5.37258 24.5 12 24.5C18.6274 24.5 24 19.1274 24 12.5C24 5.87258 18.6274 0.5 12 0.5ZM9.36151 6.13863C10.0442 6.10756 10.2623 6.09996 12.0005 6.09996H11.9985C13.7372 6.09996 13.9545 6.10756 14.6372 6.13863C15.3185 6.16983 15.7838 6.2777 16.1918 6.43596C16.6132 6.5993 16.9692 6.81797 17.3252 7.17397C17.6812 7.52971 17.8999 7.88678 18.0639 8.30772C18.2212 8.71465 18.3292 9.17973 18.3612 9.86107C18.3919 10.5437 18.3999 10.7619 18.3999 12.5C18.3999 14.2382 18.3919 14.4558 18.3612 15.1385C18.3292 15.8195 18.2212 16.2847 18.0639 16.6918C17.8999 17.1126 17.6812 17.4697 17.3252 17.8254C16.9696 18.1814 16.6131 18.4006 16.1922 18.5641C15.785 18.7224 15.3194 18.8302 14.6381 18.8614C13.9554 18.8925 13.738 18.9001 11.9997 18.9001C10.2617 18.9001 10.0437 18.8925 9.36098 18.8614C8.67977 18.8302 8.21457 18.7224 7.80736 18.5641C7.38669 18.4006 7.02962 18.1814 6.67402 17.8254C6.31815 17.4697 6.09948 17.1126 5.93588 16.6917C5.77774 16.2847 5.66987 15.8197 5.63854 15.1383C5.60761 14.4556 5.59987 14.2382 5.59987 12.5C5.59987 10.7619 5.60787 10.5436 5.63841 9.86093C5.66907 9.17986 5.77707 8.71465 5.93574 8.30758C6.09974 7.88678 6.31841 7.52971 6.67442 7.17397C7.03015 6.8181 7.38722 6.59943 7.80816 6.43596C8.2151 6.2777 8.68017 6.16983 9.36151 6.13863Z" fill="#CB2F2F"/>
<path fill-rule="evenodd" clip-rule="evenodd" d="M11.4265 7.25331C11.538 7.25313 11.6579 7.25319 11.7873 7.25325L12.0006 7.25331C13.7094 7.25331 13.912 7.25944 14.5868 7.29011C15.2108 7.31864 15.5495 7.42291 15.7751 7.51051C16.0737 7.62651 16.2867 7.76518 16.5105 7.98918C16.7345 8.21319 16.8732 8.42652 16.9895 8.72519C17.0771 8.95053 17.1815 9.2892 17.2099 9.9132C17.2405 10.5879 17.2472 10.7905 17.2472 12.4986C17.2472 14.2066 17.2405 14.4093 17.2099 15.0839C17.1813 15.7079 17.0771 16.0466 16.9895 16.2719C16.8735 16.5706 16.7345 16.7833 16.5105 17.0071C16.2865 17.2311 16.0739 17.3698 15.7751 17.4858C15.5497 17.5738 15.2108 17.6778 14.5868 17.7064C13.9121 17.737 13.7094 17.7437 12.0006 17.7437C10.2917 17.7437 10.0891 17.737 9.41447 17.7064C8.79046 17.6776 8.45179 17.5733 8.22605 17.4857C7.92738 17.3697 7.71405 17.231 7.49005 17.007C7.26604 16.783 7.12738 16.5702 7.01111 16.2714C6.92351 16.0461 6.81911 15.7074 6.79071 15.0834C6.76004 14.4087 6.75391 14.206 6.75391 12.497C6.75391 10.7879 6.76004 10.5863 6.79071 9.9116C6.81924 9.2876 6.92351 8.94893 7.01111 8.72332C7.12711 8.42465 7.26604 8.21132 7.49005 7.98732C7.71405 7.76331 7.92738 7.62465 8.22605 7.50838C8.45166 7.42038 8.79046 7.31638 9.41447 7.28771C10.0049 7.26104 10.2337 7.25304 11.4265 7.25171V7.25331ZM15.4171 8.31603C14.9931 8.31603 14.6491 8.65963 14.6491 9.08377C14.6491 9.50777 14.9931 9.85178 15.4171 9.85178C15.8411 9.85178 16.1851 9.50777 16.1851 9.08377C16.1851 8.65976 15.8411 8.31576 15.4171 8.31576V8.31603ZM8.71408 12.5C8.71408 10.685 10.1856 9.21337 12.0007 9.2133C13.8157 9.2133 15.287 10.6849 15.287 12.5C15.287 14.3151 13.8159 15.786 12.0008 15.786C10.1857 15.786 8.71408 14.3151 8.71408 12.5Z" fill="#CB2F2F"/>
<path d="M12.0005 10.3667C13.1787 10.3667 14.1339 11.3218 14.1339 12.5001C14.1339 13.6782 13.1787 14.6334 12.0005 14.6334C10.8223 14.6334 9.86719 13.6782 9.86719 12.5001C9.86719 11.3218 10.8223 10.3667 12.0005 10.3667Z" fill="#CB2F2F"/>
</svg>
