<svg width="18" height="18" viewBox="0 0 18 18" fill="none" xmlns="http://www.w3.org/2000/svg">
<path d="M16.5 2.625C16.6115 2.62725 16.7172 2.64762 16.8228 2.69784C16.9317 2.74992 17.0275 2.8284 17.1 2.925C17.1475 2.99579 17.1364 2.97455 17.1 2.925C17.1971 3.05453 17.25 3.21313 17.25 3.375C17.2497 3.33505 17.2481 3.31771 17.25 3.375V14.625C17.25 15.0392 16.9142 15.375 16.5 15.375H1.5C1.08579 15.375 0.75 15.0392 0.75 14.625V3.375C0.75 3.24073 0.786425 3.10741 0.854943 2.99225C0.99457 2.75698 1.23642 2.63031 1.5 2.625H16.5ZM15.75 4.875L9.45 9.6C9.21 9.78 8.889 9.798 8.6328 9.654L8.55 9.6L2.25 4.875V13.875H15.75V4.875ZM3.75 4.125L9 8.0625L14.25 4.125H3.75Z" fill="#CB2F2F"/>
</svg>
