<svg width="16" height="21" viewBox="0 0 16 21" fill="none" xmlns="http://www.w3.org/2000/svg">
<path d="M7.42009 20.314C7.59409 20.438 7.79709 20.5 8.00009 20.5C8.20309 20.5 8.40609 20.438 8.58009 20.314C8.88409 20.099 16.0291 14.94 16.0001 8.5C16.0001 4.089 12.4111 0.5 8.00009 0.5C3.58909 0.5 8.80377e-05 4.089 8.80377e-05 8.495C-0.028912 14.94 7.11609 20.099 7.42009 20.314ZM8.00009 2.5C11.3091 2.5 14.0001 5.191 14.0001 8.505C14.0211 12.943 9.61209 16.928 8.00009 18.235C6.38909 16.927 1.97909 12.941 2.00009 8.5C2.00009 5.191 4.69109 2.5 8.00009 2.5Z" fill="#CB2F2F"/>
</svg>
