<svg width="301" height="300" viewBox="0 0 301 300" fill="none" xmlns="http://www.w3.org/2000/svg">
<path d="M138.738 202.055C132.74 206.079 126.591 206.864 120.593 202.233C114.645 197.652 114.088 191.375 116.391 183.682C108.597 185.377 101.586 185.327 96.9803 178.392C93.0323 172.445 93.9939 166.624 97.8913 161.006C98.3722 160.525 98.8531 160.07 99.3339 159.589C102.118 157.589 105.357 155.641 108.597 156.299C114.519 157.488 113.43 154.755 113.759 150.579C114.19 144.809 113.582 142.455 107.129 143.392C104.775 143.721 102.067 141.645 99.5363 140.658C98.853 139.975 98.1697 139.292 97.4864 138.634C94.0698 132.889 93.0069 127.043 97.1574 121.247C101.763 114.819 108.268 114.262 116.265 116.388C114.24 108.517 114.544 101.608 121.453 97.0274C127.375 93.13 133.196 94.0917 138.764 97.9638C139.245 98.4446 139.7 98.9255 140.181 99.4063C141.32 102.216 143.775 105.227 143.344 107.758C142.206 114.591 145.445 113.351 150.178 113.731C155.872 114.186 156.353 112.642 156.201 107.783C156.1 105.025 158.276 102.216 159.415 99.4063C159.921 98.9002 160.427 98.3687 160.933 97.8626C166.906 93.6614 173.056 92.9528 179.054 97.5082C185.027 102.064 185.735 108.289 183.432 115.932C191.025 114.616 198.111 114.287 202.768 121.298C206.716 127.245 205.805 133.066 202.059 138.735C201.477 139.317 200.895 139.874 200.338 140.456C197.504 141.569 194.542 143.847 191.86 143.543C186.064 142.885 186.14 144.935 186.216 149.845C186.292 154.603 186.014 156.881 191.885 156.223C194.568 155.919 197.529 158.222 200.338 159.336C200.92 159.918 201.502 160.5 202.11 161.082C206.108 167.055 206.893 173.204 202.312 179.152C197.757 185.049 191.632 185.985 183.913 183.454C185.482 191.401 185.229 198.639 177.89 203.194C172.246 206.687 166.678 205.725 161.313 202.309C160.579 201.575 159.871 200.841 159.137 200.132C156.302 195.931 155.568 191.249 156.353 186.364C148.28 185.453 141.573 185.681 142.408 196.386C142.509 197.677 141.092 199.069 140.358 200.41C139.801 200.993 139.27 201.524 138.738 202.055ZM177.409 177.431C172.778 174.622 182.496 165.789 172.17 165.738C166.906 165.713 165.666 167.51 165.717 172.395C165.793 182.644 174.499 172.951 177.409 177.431ZM122.617 177.557C125.477 173.685 135.777 182.872 133.981 170.269C132.538 160.247 126.186 168.143 122.668 165.561C124.11 169.737 122.592 173.23 122.617 177.557ZM177.763 122.614C165.54 123.879 165.843 123.93 165.489 126.764C164.299 136.609 171.74 133.268 177.51 134.812C175.789 130.231 177.131 126.486 177.763 122.614ZM122.516 122.082C123.199 126.536 123.63 130.358 122.946 134.66C126.312 131.649 133.069 139.089 134.208 129.169C135.6 116.894 125.249 126.638 122.516 122.082ZM145.192 149.187C145.394 151.794 143.42 155.539 148.76 154.476C151.468 153.945 154.961 155.868 154.505 150.25C154.202 146.429 153.999 144.935 149.621 145.214C146.331 145.416 143.977 145.087 145.192 149.187Z" fill="#F5F5F5"/>
<path d="M140.232 99.4065C139.751 98.9256 139.295 98.4448 138.815 97.9639C138.739 97.3565 138.815 96.6732 138.587 96.1418C135.474 89.2833 135.373 82.8045 141.75 77.7935C146.938 73.7189 152.785 73.6936 157.998 77.7429C164.401 82.7032 164.325 89.2074 161.288 96.0658C161.06 96.5973 161.111 97.2806 161.035 97.888C160.529 98.3942 160.023 98.9256 159.516 99.4318C153.063 102.039 146.635 101.988 140.232 99.4065Z" fill="#F5F5F5"/>
<path d="M202.11 161.108C201.528 160.526 200.946 159.943 200.338 159.361C197.63 153.06 197.681 146.783 200.338 140.482C200.92 139.9 201.502 139.343 202.059 138.761C204.109 138.128 206.108 137.343 208.209 136.938C214.156 135.8 219.269 137.242 222.685 142.532C225.798 147.365 225.798 152.452 222.71 157.286C219.319 162.575 214.182 164.043 208.234 162.904C206.159 162.55 204.16 161.74 202.11 161.108Z" fill="#F5F5F5"/>
<path d="M159.111 200.157C159.845 200.891 160.554 201.625 161.288 202.333C161.693 203.801 162.098 205.294 162.477 206.762C164.147 213.039 163.135 218.632 157.567 222.504C152.455 226.047 146.938 225.971 141.902 222.301C136.435 218.303 135.55 212.684 137.397 206.458C137.827 204.991 138.308 203.523 138.738 202.055C139.27 201.523 139.801 200.967 140.333 200.435C146.558 197.803 152.835 197.879 159.111 200.157Z" fill="#F5F5F5"/>
<path d="M99.3593 159.588C98.8785 160.069 98.3976 160.524 97.9168 161.005C90.4003 163.409 82.8585 165.561 77.2654 157.462C74.0007 152.755 73.9248 147.617 77.0377 142.758C82.3777 134.482 89.9448 136.305 97.5371 138.582C98.2205 139.266 98.9038 139.949 99.5871 140.607C102.042 146.984 101.814 153.311 99.3593 159.588Z" fill="#F5F5F5"/>
<path d="M224.406 190.794C224.558 197.753 218.281 204.03 211.322 203.903C204.716 203.777 198.82 197.905 198.693 191.274C198.541 184.289 204.792 178.038 211.777 178.165C218.357 178.317 224.254 184.188 224.406 190.794Z" fill="#F5F5F5"/>
<path d="M88.325 203.802C81.4412 203.878 75.2408 197.576 75.4686 190.717C75.671 184.163 81.5425 178.393 88.0972 178.317C94.981 178.241 101.181 184.542 100.954 191.401C100.776 197.956 94.8798 203.726 88.325 203.802Z" fill="#F5F5F5"/>
<path d="M121.554 211.141C121.833 218.025 115.683 224.377 108.749 224.377C102.194 224.377 96.2464 218.607 95.968 212.052C95.6896 205.168 101.839 198.816 108.774 198.816C115.354 198.816 121.301 204.561 121.554 211.141Z" fill="#F5F5F5"/>
<path d="M210.816 121.651C203.831 121.221 198.06 114.515 198.769 107.656C199.452 101.025 205.729 95.6096 212.233 96.0145C219.218 96.4447 224.988 103.177 224.279 110.01C223.621 116.64 217.345 122.056 210.816 121.651Z" fill="#F5F5F5"/>
<path d="M87.7682 96.0909C94.247 95.8378 100.397 101.355 100.928 107.935C101.485 114.743 95.5884 121.323 88.654 121.601C81.7955 121.88 75.4433 115.755 75.4686 108.846C75.4939 102.291 81.2135 96.344 87.7682 96.0909Z" fill="#F5F5F5"/>
<path d="M203.805 88.3466C203.78 95.3063 197.377 101.431 190.468 101.102C183.863 100.798 178.143 94.8254 178.168 88.2201C178.194 81.2604 184.596 75.1358 191.506 75.4648C198.111 75.7685 203.831 81.7665 203.805 88.3466Z" fill="#F5F5F5"/>
<path d="M108.824 75.5409C115.734 75.5662 121.833 81.9438 121.504 88.8022C121.2 95.3823 115.227 101.077 108.698 101.026C101.789 101.001 95.6896 94.623 95.9933 87.7646C96.3223 81.2098 102.295 75.4902 108.824 75.5409Z" fill="#F5F5F5"/>
<path d="M203.805 211.445C203.906 218.405 197.605 224.605 190.67 224.428C184.065 224.251 178.244 218.354 178.168 211.749C178.067 204.789 184.343 198.588 191.303 198.791C197.908 198.968 203.704 204.84 203.805 211.445Z" fill="#F5F5F5"/>
<path d="M117.454 231.412C118.492 224.174 122.592 220.302 129.881 220.378C136.84 220.454 141.927 226.376 141.041 233.361C140.105 240.675 135.55 244.345 128.337 243.839C120.972 243.307 117.657 238.549 117.454 231.412Z" fill="#F5F5F5"/>
<path d="M232.074 182.441C224.836 181.808 220.61 178.038 220.255 170.698C219.926 163.713 225.595 158.145 232.58 158.652C239.869 159.183 244.02 163.46 243.868 170.749C243.741 178.088 239.287 181.834 232.074 182.441Z" fill="#F5F5F5"/>
<path d="M79.4671 170.37C78.9104 177.608 75.2407 182.062 67.8002 182.113C60.4356 182.163 56.1332 178.013 56.0319 170.623C55.956 163.258 60.1318 158.981 67.4964 158.855C74.937 158.754 78.7585 163.107 79.4671 170.37Z" fill="#F5F5F5"/>
<path d="M182.395 232.02C181.863 239.182 178.194 243.712 170.854 243.94C163.591 244.142 159.238 240.093 158.605 232.779C157.998 225.794 163.515 220.049 170.5 220.302C177.839 220.58 181.661 224.756 182.395 232.02Z" fill="#F5F5F5"/>
<path d="M231.897 141.341C224.634 140.581 220.483 136.709 220.256 129.37C220.053 122.385 225.823 116.893 232.808 117.551C240.097 118.234 244.146 122.587 243.893 129.851C243.615 137.215 239.059 140.834 231.897 141.341Z" fill="#F5F5F5"/>
<path d="M68.1546 117.603C75.3927 118.489 79.5685 122.487 79.2901 129.852C79.0117 137.242 74.5323 141.266 67.2183 141.013C59.8283 140.76 55.8297 136.28 56.0574 128.941C56.2852 121.5 60.8913 117.983 68.1546 117.603Z" fill="#F5F5F5"/>
<path d="M141.219 67.4676C140.434 75.1865 136.587 79.5395 129.172 79.413C121.782 79.2864 117.581 74.9587 117.682 67.5688C117.784 60.1789 122.136 56.0031 129.501 56.0537C136.992 56.1043 140.535 60.7104 141.219 67.4676Z" fill="#F5F5F5"/>
<path d="M182.319 67.8718C181.636 75.0846 177.839 79.2604 170.5 79.5135C163.49 79.7666 158.074 74.1229 158.656 67.1126C159.238 59.8239 163.54 55.7999 170.804 56.0024C178.143 56.2049 181.787 60.6843 182.319 67.8718Z" fill="#F5F5F5"/>
<path d="M88.5274 242.978C82.0739 242.244 77.7716 238.853 77.6197 232.374C77.4932 225.921 81.5425 221.719 87.9707 221.568C94.4243 221.416 98.6254 225.49 98.7772 231.919C98.9797 238.397 94.7532 241.915 88.5274 242.978Z" fill="#F5F5F5"/>
<path d="M150.051 263.578C143.699 262.819 139.371 259.428 139.219 252.924C139.093 246.445 143.193 242.218 149.621 242.041C156.1 241.889 160.326 245.989 160.503 252.443C160.706 258.998 156.479 262.541 150.051 263.578Z" fill="#F5F5F5"/>
<path d="M253.409 139.114C259.154 140.051 263.077 143.492 263.431 149.946C263.735 155.792 257.686 161.486 251.966 160.702C245.665 159.841 241.97 155.919 241.894 149.465C241.793 143.948 247.411 138.962 253.409 139.114Z" fill="#F5F5F5"/>
<path d="M57.905 149.844C56.8673 156.5 53.3242 160.651 46.8706 160.474C40.4677 160.296 36.4184 156.121 36.5703 149.692C36.7221 143.29 40.9233 139.266 47.3515 139.392C53.8303 139.519 57.0698 143.922 57.905 149.844Z" fill="#F5F5F5"/>
<path d="M149.722 36.3643C156.049 37.0982 160.351 40.4895 160.453 46.9683C160.579 53.4218 156.505 57.6229 150.076 57.7495C143.623 57.876 139.447 53.8015 139.295 47.3732C139.143 40.8944 143.345 37.3766 149.722 36.3643Z" fill="#F5F5F5"/>
<path d="M98.9798 67.5688C98.2711 73.8705 94.9052 78.1222 88.4516 78.2741C82.0234 78.4006 77.8476 74.3767 77.6957 67.9737C77.5439 61.5455 81.5932 57.3697 87.9961 57.2179C94.4496 57.0407 97.9674 61.1912 98.9798 67.5688Z" fill="#F5F5F5"/>
<path d="M222.407 232.349C221.344 238.751 217.801 242.978 211.296 242.801C204.843 242.624 200.743 238.397 200.895 231.918C201.072 225.465 205.298 221.365 211.777 221.517C218.281 221.643 221.673 225.996 222.407 232.349Z" fill="#F5F5F5"/>
<path d="M211.372 56.8638C217.725 57.623 222.052 61.0143 222.204 67.5184C222.331 73.9972 218.231 78.2237 211.777 78.3755C205.298 78.5274 201.072 74.4022 200.92 67.9487C200.718 61.4445 204.944 57.9014 211.372 56.8638Z" fill="#F5F5F5"/>
<path d="M67.5724 200.815C74.2284 201.828 78.3789 205.371 78.2017 211.824C78.0499 218.227 73.8741 222.277 67.4459 222.15C61.0429 221.998 57.019 217.822 57.1202 211.394C57.2468 204.89 61.625 201.651 67.5724 200.815Z" fill="#F5F5F5"/>
<path d="M232.251 99.1529C225.899 98.3937 221.571 94.9771 221.445 88.473C221.318 81.9941 225.418 77.7677 231.897 77.6159C238.376 77.464 242.577 81.5892 242.754 88.0427C242.906 94.5975 238.654 98.1406 232.251 99.1529Z" fill="#F5F5F5"/>
<path d="M78.4296 87.9666C77.6957 94.4201 74.3298 98.6972 67.8763 98.8237C61.448 98.9503 57.2722 94.901 57.1204 88.4981C56.9685 82.0698 61.0177 77.9193 67.4207 77.7422C73.9248 77.565 77.392 81.7914 78.4296 87.9666Z" fill="#F5F5F5"/>
<path d="M243.007 211.824C241.97 218.126 238.503 222.049 232.049 222.352C226.203 222.656 220.534 216.582 221.318 210.837C222.204 204.536 226.152 200.537 232.581 200.866C238.983 201.22 242.324 205.523 243.007 211.824Z" fill="#F5F5F5"/>
<path d="M252.953 98.9507C259.255 99.6087 262.697 103.076 262.393 109.378C262.064 115.755 258.091 118.944 251.865 118.564C246.019 118.21 242.805 114.591 242.881 108.72C242.957 102.367 246.728 99.2797 252.953 98.9507Z" fill="#F5F5F5"/>
<path d="M252.903 201.017C246.323 200.409 242.729 197.145 242.83 190.893C242.931 184.642 246.55 181.15 252.776 181.226C259.027 181.302 262.469 184.946 262.469 191.172C262.444 197.55 258.572 200.485 252.903 201.017Z" fill="#F5F5F5"/>
<path d="M46.7187 200.84C40.5182 200.132 37.127 196.69 37.4813 190.439C37.8356 184.112 41.7836 180.999 47.9587 181.404C53.7796 181.783 56.8925 185.402 56.7659 191.198C56.6647 197.55 52.8938 200.536 46.7187 200.84Z" fill="#F5F5F5"/>
<path d="M190.974 37.3516C197.2 37.8324 200.819 41.0718 200.692 47.3988C200.54 53.7511 196.795 57.0665 190.544 56.8893C184.698 56.7122 181.382 53.2703 181.281 47.4242C181.18 41.0719 184.748 37.8324 190.974 37.3516Z" fill="#F5F5F5"/>
<path d="M47.7562 118.64C41.1762 118.26 37.4559 115.173 37.4559 108.846C37.4812 102.544 41.0496 99.1021 47.326 99.178C53.1468 99.2286 56.5128 102.544 56.7659 108.365C57.0442 114.717 53.4758 117.906 47.7562 118.64Z" fill="#F5F5F5"/>
<path d="M200.92 252.696C200.186 259.378 196.668 262.794 190.392 262.44C184.014 262.086 180.851 258.062 181.256 251.836C181.635 245.964 185.305 242.826 191.151 242.902C197.605 243.029 200.465 246.951 200.92 252.696Z" fill="#F5F5F5"/>
<path d="M109.103 262.567C102.447 262.01 98.8784 258.695 99.0809 252.368C99.2834 246.016 103.08 242.751 109.331 242.979C115.177 243.207 118.416 246.699 118.492 252.545C118.593 258.999 114.797 261.985 109.103 262.567Z" fill="#F5F5F5"/>
<path d="M118.568 47.5754C117.859 53.7758 114.418 57.1671 108.166 56.8128C101.839 56.4585 98.7266 52.5104 99.1315 46.3353C99.5111 40.5145 103.13 37.4016 108.926 37.5281C115.278 37.6294 118.264 41.4002 118.568 47.5754Z" fill="#F5F5F5"/>
<path d="M273.124 179.43C267.505 178.342 264.038 175.254 264.519 169.838C264.975 164.574 268.619 161.284 274.085 161.841C278.97 162.322 282.083 165.713 281.906 170.699C281.703 176.14 278.008 178.772 273.124 179.43Z" fill="#F5F5F5"/>
<path d="M26.5988 179.1C21.3601 178.569 17.9941 175.658 18.1206 170.217C18.2219 165.257 21.436 162.068 26.4216 162.043C31.8375 162.017 35.1529 165.358 35.0517 170.799C34.9251 175.734 31.6857 178.493 26.5988 179.1Z" fill="#F5F5F5"/>
<path d="M170.171 17.9395C174.954 18.2685 178.447 20.7233 178.928 25.7343C179.434 31.2261 176.27 34.8452 170.88 35.1489C165.438 35.4526 161.971 32.0613 161.895 26.6201C161.819 21.6091 165.034 18.7493 170.171 17.9395Z" fill="#F5F5F5"/>
<path d="M282.083 129.093C281.577 134.332 278.793 137.976 273.377 138.077C267.986 138.179 264.57 134.711 264.494 129.321C264.443 124.361 267.683 121.02 272.567 120.691C277.983 120.337 281.045 123.728 282.083 129.093Z" fill="#F5F5F5"/>
<path d="M26.3205 120.792C31.0531 121.095 34.495 123.499 34.9759 128.485C35.482 133.926 32.3691 137.52 27.0038 137.824C21.6132 138.102 18.1713 134.812 18.0954 129.371C18.0448 124.385 21.183 121.551 26.3205 120.792Z" fill="#F5F5F5"/>
<path d="M138.131 273.069C137.6 278.257 134.79 281.851 129.425 281.876C124.085 281.902 120.719 278.485 120.719 273.12C120.719 268.185 123.959 264.92 128.818 264.642C134.183 264.338 137.22 267.679 138.131 273.069Z" fill="#F5F5F5"/>
<path d="M138.004 26.4688C137.625 31.3279 135.043 34.7445 130.058 35.1241C124.591 35.5291 120.972 32.3149 120.795 26.899C120.593 21.4578 124.034 18.0412 129.501 18.0665C134.487 18.1172 137.296 21.3819 138.004 26.4688Z" fill="#F5F5F5"/>
<path d="M170.449 282.053C165.185 281.37 161.667 278.46 161.794 273.069C161.921 267.729 165.464 264.439 170.829 264.616C175.713 264.793 178.953 268.058 179.054 272.968C179.181 278.384 175.764 281.294 170.449 282.053Z" fill="#F5F5F5"/>
<path d="M252.548 240.017C247.462 239.612 244.627 236.879 244.855 231.666C245.057 226.933 247.917 224.301 252.624 224.352C257.863 224.402 260.596 227.439 260.394 232.602C260.242 237.385 257.306 239.714 252.548 240.017Z" fill="#F5F5F5"/>
<path d="M231.34 39.3247C236.857 39.6031 239.844 42.0833 239.793 47.322C239.743 52.0293 237.085 54.7879 232.378 54.8891C227.215 55.0157 224.355 52.2065 224.33 47.0436C224.355 42.2604 227.24 39.9574 231.34 39.3247Z" fill="#F5F5F5"/>
<path d="M232.201 244.826C236.959 245.231 239.793 247.661 239.869 252.444C239.945 257.632 237.111 260.542 231.897 260.492C227.165 260.441 224.431 257.733 224.305 252.975C224.203 247.737 227.139 245.13 232.201 244.826Z" fill="#F5F5F5"/>
<path d="M251.941 59.8247C257.458 60.1031 260.47 62.6086 260.419 67.8726C260.369 72.6052 257.711 75.3891 252.953 75.4903C247.765 75.6169 244.855 72.7824 244.855 67.5689C244.855 62.7857 247.74 60.4321 251.941 59.8247Z" fill="#F5F5F5"/>
<path d="M75.3928 47.3469C74.9372 52.0036 72.4824 54.8128 67.7245 54.7875C62.4857 54.7622 59.7524 51.6746 60.0814 46.5624C60.3598 41.8551 63.3715 39.3749 68.0787 39.5774C72.8366 39.7799 75.1144 42.6903 75.3928 47.3469Z" fill="#F5F5F5"/>
<path d="M47.402 224.377C52.084 224.883 54.8426 227.389 54.7666 232.197C54.6654 237.486 51.5273 240.169 46.3645 239.789C41.6066 239.46 39.1769 236.373 39.43 231.64C39.7337 226.832 42.6947 224.579 47.402 224.377Z" fill="#F5F5F5"/>
<path d="M218.864 26.3677C218.484 30.6194 216.257 33.5552 212.005 33.7829C207.273 34.036 204.312 31.1509 204.362 26.4183C204.413 22.1666 207.222 19.4839 211.499 19.4333C215.827 19.408 218.13 22.2172 218.864 26.3677Z" fill="#F5F5F5"/>
<path d="M95.4872 26.6451C94.8798 30.7956 92.6274 33.7061 88.401 33.7314C83.7443 33.7567 80.8339 30.7957 81.1123 26.139C81.3654 22.0138 84.1999 19.3311 88.4769 19.5083C92.7286 19.6854 94.9304 22.5199 95.4872 26.6451Z" fill="#F5F5F5"/>
<path d="M67.6485 244.926C72.3558 245.255 75.2662 247.634 75.3421 252.443C75.4181 257.681 72.4571 260.541 67.2436 260.339C62.4604 260.162 59.9043 257.226 60.0055 252.493C60.1068 247.685 62.9412 245.306 67.6485 244.926Z" fill="#F5F5F5"/>
<path d="M273.149 219.037C268.619 218.405 265.683 215.925 265.936 211.167C266.164 206.94 268.923 204.258 273.174 204.308C277.882 204.384 280.691 207.295 280.488 212.027C280.286 216.304 277.426 218.531 273.149 219.037Z" fill="#F5F5F5"/>
<path d="M26.0169 204.283C30.547 204.789 33.4827 206.991 33.6599 211.192C33.8623 215.848 30.9519 218.81 26.2952 218.708C22.1194 218.632 19.4621 215.798 19.4368 211.571C19.4115 207.244 22.3978 205.168 26.0169 204.283Z" fill="#F5F5F5"/>
<path d="M47.402 75.5147C42.2644 74.9579 39.4553 72.5284 39.5059 67.7705C39.5565 62.5317 42.6441 59.8238 47.7816 60.1528C52.4889 60.4565 54.9438 63.4681 54.7413 68.1754C54.5389 72.9839 51.4512 75.0592 47.402 75.5147Z" fill="#F5F5F5"/>
<path d="M272.744 95.661C268.366 94.7247 265.481 92.1685 266.012 87.4613C266.468 83.3614 269.328 80.7294 273.554 81.033C278.16 81.3874 280.868 84.399 280.387 89.0557C279.957 93.2315 277.047 95.408 272.744 95.661Z" fill="#F5F5F5"/>
<path d="M95.5631 273.55C94.8039 277.701 92.4755 280.484 88.1732 280.434C83.8961 280.383 81.1123 277.675 81.087 273.423C81.0616 268.691 84.048 265.831 88.7553 266.109C92.9564 266.337 95.1835 269.298 95.5631 273.55Z" fill="#F5F5F5"/>
<path d="M211.043 265.781C215.978 266.489 218.939 268.894 218.762 273.601C218.585 277.777 215.852 280.485 211.625 280.459C206.969 280.434 204.185 277.549 204.286 272.867C204.413 268.641 207.449 266.616 211.043 265.781Z" fill="#F5F5F5"/>
<path d="M33.7863 88.4726C33.0018 92.6737 30.6481 95.5082 26.3204 95.3057C22.0687 95.1286 19.3607 92.2941 19.5126 88.017C19.6897 83.7653 22.4989 81.0573 26.8013 81.2092C31.0783 81.3864 33.3054 84.2968 33.7863 88.4726Z" fill="#F5F5F5"/>
<path d="M300.229 149.769C299.798 153.945 297.647 156.349 293.699 156.298C289.751 156.248 287.347 153.818 287.398 149.87C287.448 145.922 289.878 143.543 293.826 143.569C297.799 143.594 299.824 146.125 300.229 149.769Z" fill="#F5F5F5"/>
<path d="M196.618 293.088C196.466 296.859 194.846 299.035 191.657 299.339C188.013 299.693 185.609 297.77 185.482 294.024C185.356 290.304 187.558 288.229 191.253 288.279C194.568 288.33 196.061 290.557 196.618 293.088Z" fill="#F5F5F5"/>
<path d="M143.572 293.923C144.154 289.494 146.483 287.317 150.431 287.646C154.455 287.975 156.429 290.709 156.024 294.606C155.67 298.073 153.341 300.098 149.747 299.997C145.698 299.895 143.901 297.339 143.572 293.923Z" fill="#F5F5F5"/>
<path d="M114.367 293.771C113.962 297.264 112.114 299.44 108.445 299.289C105.281 299.137 103.307 297.112 103.307 293.949C103.307 290.33 105.484 288.229 109.103 288.356C112.292 288.457 113.937 290.583 114.367 293.771Z" fill="#F5F5F5"/>
<path d="M114.291 6.11998C113.861 9.28347 112.165 11.4347 108.951 11.46C105.281 11.4853 103.105 9.20755 103.409 5.5632C103.662 2.45032 105.813 0.476319 109.078 0.678782C112.266 0.855938 113.911 2.95648 114.291 6.11998Z" fill="#F5F5F5"/>
<path d="M156.049 6.09556C155.543 10.5498 153.063 12.5238 149.089 12.1442C145.496 11.7899 143.572 9.36028 143.8 5.76654C144.053 1.59073 146.71 -0.33266 150.684 0.0469596C154.303 0.350655 155.923 2.85614 156.049 6.09556Z" fill="#F5F5F5"/>
<path d="M196.643 5.86748C195.985 9.81553 193.935 11.9161 190.341 11.5365C187.279 11.2075 185.305 9.08162 185.533 5.89282C185.761 2.27378 188.064 0.299752 191.657 0.628756C194.796 0.907143 196.238 3.23546 196.643 5.86748Z" fill="#F5F5F5"/>
<path d="M11.5153 108.821C11.1357 111.985 9.44011 114.161 6.25131 114.212C2.58165 114.288 0.405164 112.035 0.632935 108.366C0.835399 105.227 2.98655 103.279 6.22597 103.405C9.46539 103.582 11.1104 105.683 11.5153 108.821Z" fill="#F5F5F5"/>
<path d="M299.444 108.238C299.191 112.287 297.369 114.413 293.674 114.413C290.46 114.413 288.435 112.591 288.182 109.428C287.878 105.859 289.675 103.506 293.37 103.227C297.09 102.974 298.862 105.201 299.444 108.238Z" fill="#F5F5F5"/>
<path d="M12.0721 149.971C11.819 153.844 9.71844 156.096 5.66917 155.944C2.07543 155.818 0.0255144 153.666 0.000206408 150.073C-0.0251016 145.998 2.27792 143.822 6.3272 143.948C9.94624 144.049 11.7937 146.251 12.0721 149.971Z" fill="#F5F5F5"/>
<path d="M11.5153 191.198C11.0345 194.336 9.31358 196.487 6.09947 196.437C2.42981 196.386 0.278625 194.083 0.632936 190.439C0.936632 187.351 3.1384 185.377 6.37782 185.63C9.56662 185.883 11.2369 188.009 11.5153 191.198Z" fill="#F5F5F5"/>
<path d="M299.419 190.92C299.191 194.489 297.369 196.64 293.674 196.64C290.46 196.64 288.435 194.818 288.182 191.654C287.878 188.086 289.675 185.707 293.37 185.454C297.014 185.226 298.989 187.276 299.419 190.92Z" fill="#F5F5F5"/>
</svg>
