<svg width="16" height="16" viewBox="0 0 16 16" fill="none" xmlns="http://www.w3.org/2000/svg">
<path fill-rule="evenodd" clip-rule="evenodd" d="M2.375 2C2.16789 2 2 2.16789 2 2.375V13.625C2 13.8321 2.16789 14 2.375 14H13.625C13.8321 14 14 13.8321 14 13.625V2.375C14 2.16789 13.8321 2 13.625 2H2.375ZM0.5 2.375C0.5 1.33947 1.33947 0.5 2.375 0.5H13.625C14.6605 0.5 15.5 1.33947 15.5 2.375V13.625C15.5 14.6605 14.6605 15.5 13.625 15.5H2.375C1.33947 15.5 0.5 14.6605 0.5 13.625V2.375ZM8 4.25C8.41421 4.25 8.75 4.58579 8.75 5V7.25H11C11.4142 7.25 11.75 7.58579 11.75 8C11.75 8.41421 11.4142 8.75 11 8.75H8.75V11C8.75 11.4142 8.41421 11.75 8 11.75C7.58579 11.75 7.25 11.4142 7.25 11V8.75H5C4.58579 8.75 4.25 8.41421 4.25 8C4.25 7.58579 4.58579 7.25 5 7.25H7.25V5C7.25 4.58579 7.58579 4.25 8 4.25Z" fill="#CB2F2F"/>
</svg>
