<svg width="15" height="15" viewBox="0 0 15 15" fill="none" xmlns="http://www.w3.org/2000/svg">
<path d="M11.2803 8.21975C10.987 7.9265 10.513 7.9265 10.2198 8.21975L9.02426 9.41525C8.47001 9.25025 7.43576 8.87525 6.78026 8.21975C6.12476 7.56425 5.74976 6.53 5.58476 5.97575L6.78026 4.78025C7.07351 4.487 7.07351 4.013 6.78026 3.71975L3.78026 0.719754C3.48701 0.426504 3.01301 0.426504 2.71976 0.719754L0.685756 2.75375C0.400756 3.03875 0.240256 3.43025 0.246256 3.83C0.263506 4.898 0.546256 8.6075 3.46976 11.531C6.39326 14.4545 10.1028 14.7365 11.1715 14.7545C11.1753 14.7545 11.1888 14.7545 11.1925 14.7545C11.5885 14.7545 11.9628 14.5985 12.2463 14.315L14.2803 12.281C14.5735 11.9878 14.5735 11.5138 14.2803 11.2205L11.2803 8.21975ZM11.185 13.2538C10.249 13.238 7.04651 12.9868 4.53026 10.4698C2.00576 7.94525 1.76126 4.7315 1.74626 3.81425L3.25001 2.3105L5.18951 4.25L4.21976 5.21975C4.04051 5.39825 3.96401 5.65625 4.01576 5.90375C4.03376 5.99 4.47401 8.03525 5.71901 9.28025C6.96401 10.5253 9.00926 10.9655 9.09551 10.9835C9.34525 11.0368 9.60101 10.9595 9.77951 10.7803L10.75 9.8105L12.6895 11.75L11.185 13.2538Z" fill="#CB2F2F"/>
</svg>
